<svg xmlns="http://www.w3.org/2000/svg" viewBox="0 0 1024 1024" role="img" aria-labelledby="title desc">
  <title id="title">Moa app icon</title>
  <desc id="desc">A rounded square Moa icon with a lightning bolt and menu lines for Codex Fast Menu.</desc>
  <defs>
    <linearGradient id="bg" x1="144" y1="96" x2="880" y2="928" gradientUnits="userSpaceOnUse">
      <stop offset="0" stop-color="#191B24"/>
      <stop offset="0.48" stop-color="#1E5CE6"/>
      <stop offset="1" stop-color="#22C7A9"/>
    </linearGradient>
    <linearGradient id="bolt" x1="365" y1="195" x2="674" y2="719" gradientUnits="userSpaceOnUse">
      <stop offset="0" stop-color="#FFF4A8"/>
      <stop offset="0.44" stop-color="#FFD23F"/>
      <stop offset="1" stop-color="#FF8A1E"/>
    </linearGradient>
    <filter id="shadow" x="-20%" y="-20%" width="140%" height="140%">
      <feDropShadow dx="0" dy="20" stdDeviation="24" flood-color="#05070B" flood-opacity="0.35"/>
    </filter>
  </defs>
  <rect width="1024" height="1024" rx="224" fill="url(#bg)"/>
  <path d="M742 216h108c22 0 40 18 40 40s-18 40-40 40H742c-22 0-40-18-40-40s18-40 40-40Zm-72 140h180c22 0 40 18 40 40s-18 40-40 40H670c-22 0-40-18-40-40s18-40 40-40Zm54 140h126c22 0 40 18 40 40s-18 40-40 40H724c-22 0-40-18-40-40s18-40 40-40Z" fill="#FFFFFF" opacity="0.88"/>
  <path d="M495 152 267 534h184L381 872l358-463H548l85-257H495Z" fill="url(#bolt)" filter="url(#shadow)"/>
  <path d="M180 766c0-34 20-56 52-56 22 0 39 11 49 31l25 52 25-52c10-20 27-31 49-31 32 0 52 22 52 56v103h-48V770l-51 99h-52l-51-99v99h-50V766Zm286 1c0-36 26-58 68-58h22c42 0 68 22 68 58v45c0 36-26 58-68 58h-22c-42 0-68-22-68-58v-45Zm51 6v33c0 14 9 22 25 22h6c16 0 25-8 25-22v-33c0-14-9-22-25-22h-6c-16 0-25 8-25 22Zm164 96 64-158h65l64 158h-55l-11-31h-64l-11 31h-52Zm77-70h36l-18-51-18 51Z" fill="#FFFFFF"/>
</svg>
